<svg xmlns="http://www.w3.org/2000/svg" viewBox="0 0 102.49 28.22"><defs><style>.cls-1,.cls-2{fill:#fff;}.cls-1{fill-rule:evenodd;}</style></defs><title>logoGrande-cd</title><g id="Layer_2" data-name="Layer 2"><g id="Layer_1-2" data-name="Layer 1"><path class="cls-1" d="M102.49,8.29v0a7,7,0,0,1-2.18,4.47c-1.79,1.66-3.17,2-5.63,2h-.05a7.18,7.18,0,0,1-6.54-4.14A7.57,7.57,0,0,1,87.43,7a5.81,5.81,0,0,1,.76-2.72,7.88,7.88,0,0,1,10.23-3.2,6.65,6.65,0,0,1,2,1.5,7.34,7.34,0,0,1,2.08,5.73M92.1,7.53a3.52,3.52,0,0,1,.26-1.17,2.88,2.88,0,0,1,5.11-.07A2.92,2.92,0,0,1,97,9.49a2.93,2.93,0,0,1-4.09,0A2.88,2.88,0,0,1,92.1,7.53Z"/><path class="cls-1" d="M58.26,4.44h1V14.58h4.44V8.48a1.94,1.94,0,0,1,.14.18l3.32,5.24c.11.19.36.68.58.68H71.1V.63H66.74V5.31l-3-4.68H59.21a14.83,14.83,0,0,1-.48,1.91c-.15.63-.32,1.26-.47,1.9"/><path class="cls-1" d="M13.55,4.76h1v9.82h4.43V9.75H22v4.83H26.4V.63H22v4.6h-3.1V.63H14.51c0,.27-.17.8-.23,1Z"/><path class="cls-1" d="M72.68,4.76h.95v9.82h4.44V9.75h3.09v4.83h4.36V.63H81.16v4.6H78.07V.63H73.63a8.88,8.88,0,0,1-.22,1Z"/><path class="cls-1" d="M34.8.63H28.93l-.88,3.9c-.09.46-.12.38.88.38v9.67h8.48l1-4.36H33.37V9.35h4.2l1-3.56H33.37V5h4.44L38.92.08H35a1.27,1.27,0,0,0-.16.55"/><path class="cls-1" d="M8.64.48A7.13,7.13,0,0,0,6.58.32C4,.32,1.83,2.28.74,4.46A7.18,7.18,0,0,0,0,7.17v.92A7,7,0,0,0,1.3,11.7a7.48,7.48,0,0,0,5.6,3,7.11,7.11,0,0,0,4.48-1.06c.37-.22.6-.48.91-.68-.11-.48-1.8-3.59-1.91-4-.91.48-1,1.34-3.09,1.34A2.82,2.82,0,0,1,6.17,5a3.31,3.31,0,0,1,3.11.17c.46.25,1,.65,1.18.72a7.9,7.9,0,0,1,.48-1.11c.17-.4.31-.76.5-1.17l.77-1.69a1.32,1.32,0,0,0,.23-.63A17.32,17.32,0,0,1,10.69.64L9.83.32A7.64,7.64,0,0,0,9,0a.79.79,0,0,0-.32.48"/><path class="cls-1" d="M46.6.63H40.82l-1,4.13h1v9.82h4.44V9.91h3.8l.95-4H45.26V5h4.36c.38-1.64.8-3.26,1.19-4.91h-4Z"/><path class="cls-1" d="M51.36,4.76h1v9.82h4.44V.63h-4.2c-.3,0-.26.35-.4.88Z"/><path class="cls-1" d="M13,28.22h3.88a6.17,6.17,0,0,0,3.28-.61,5.65,5.65,0,0,0,.05-9.86A6.27,6.27,0,0,0,17,17.12H13Zm4-2H15.62V19.1c1.85,0,3.62-.18,4.46,1.8a4.54,4.54,0,0,1-.64,4.49A3.14,3.14,0,0,1,17,26.24Z"/><path class="cls-1" d="M79,28.22h-2.5a.94.94,0,0,1-.74-.52l-1.37-2.43c-.64-1.16-.52-1.16-1.78-1.16v4.12H70V17.12h4.2a4.92,4.92,0,0,1,2.74.83c2.18,1.64.93,5.14-1,5.59a6.93,6.93,0,0,0,.54.49A40.52,40.52,0,0,1,79,28.22Zm-5.67-5.87H72.6V19c1.25,0,2.94-.1,2.94,1.59C75.54,22,74.53,22.35,73.32,22.35Z"/><polygon class="cls-1" points="25.36 28.22 32.5 28.22 32.5 26.24 27.98 26.24 27.98 23.62 31.47 23.62 31.47 21.72 27.98 21.72 27.98 19.1 32.5 19.1 32.5 17.12 25.36 17.12 25.36 28.22"/><polygon class="cls-1" points="60.56 28.22 67.69 28.22 67.69 26.24 63.17 26.24 63.17 23.62 66.66 23.62 66.66 21.72 63.17 21.72 63.17 19.1 67.69 19.1 67.69 17.12 60.56 17.12 60.56 28.22"/><path class="cls-1" d="M52.15,28.22h2.38l3.83-9.65a8.25,8.25,0,0,0,.53-1.45h-2a.82.82,0,0,0-.88.48,9.37,9.37,0,0,0-.47,1.2l-1.34,3.8a12.91,12.91,0,0,0-.81,2.61A3.65,3.65,0,0,1,53,24l-2.29-6.36a1,1,0,0,0-.85-.53h-2.1l1.12,2.76c.36.92.73,1.87,1.1,2.79s.73,1.85,1.1,2.77c.18.45.37.93.55,1.36s.36,1,.56,1.42"/><path class="cls-1" d="M87.16,17.12c-.93.12-.86.71-2.11,3.25a7.49,7.49,0,0,0-.79,1.82.59.59,0,0,1-.14-.18,1.89,1.89,0,0,1-.1-.21l-.65-1.34c-.23-.57-.58-1.19-.86-1.75s-.5-1.44-1.05-1.57l-.13,0H78.87l3.82,6.56a1,1,0,0,1,.22.73c0,1.25,0,2.55,0,3.81h2.53V24.49c0-.66.18-.7.56-1.35.69-1.21,2.79-5,3.49-6Z"/><polygon class="cls-1" points="34.8 28.22 41.53 28.22 41.53 26.16 37.41 26.16 37.41 17.12 34.8 17.12 34.8 28.22"/><rect class="cls-2" x="43.52" y="17.12" width="2.62" height="11.1"/></g></g></svg>