<?xml version="1.0" encoding="utf-8"?>
<!-- Generator: Adobe Illustrator 22.1.0, SVG Export Plug-In . SVG Version: 6.00 Build 0)  -->
<svg version="1.1" id="Layer_1" xmlns="http://www.w3.org/2000/svg" xmlns:xlink="http://www.w3.org/1999/xlink" x="0px" y="0px"
	 viewBox="0 0 170.4 98.9" style="enable-background:new 0 0 170.4 98.9;" xml:space="preserve">
<style type="text/css">
	.st0{fill:#F8B316;}
</style>
<path id="CD" class="st0" d="M70.4,39.9c-2.7-2.3-5.8-4.3-9-5.8c-4-1.8-7.3-2.8-10.1-2.8c-5.2,0-10.3,1.9-14.1,5.4
	C33.2,40,31,44.8,31,49.9c0,2.8,0.5,5.6,1.5,8.2c1.9,4.9,5.8,8.7,10.6,10.7c2.6,1,5.3,1.6,8.1,1.5c6.2,0,12.4-3.1,18.7-9.4L83.1,88
	C74.3,96,63.3,100,50.3,100c-13.2,0.2-26-4.8-35.5-14C5.1,77.1-0.3,64.4,0,51.3c0-10.9,4-21.4,11.9-31.4C21.1,8.1,32.8,2.2,46.8,2.2
	c1.8,0,3.6,0.1,5.5,0.2c1.9,0.1,4,0.4,6.1,0.8L60.4,0l23.8,9L70.4,39.9z M155.9,86.2c-9.3,8.5-21.4,12.7-36.2,12.7H91.8V32.4h-6.5
	l6.5-28.3h33.8c13.4,0,24.2,4.4,32.4,13.3c8.2,9,12.3,20.1,12.3,33.5C170.4,65.6,165.6,77.3,155.9,86.2L155.9,86.2L155.9,86.2z
	 M135.2,37.7c-3.3-3.4-7.9-5.1-13.7-5.1v36.6c5.5,0,10-1.5,13.5-4.6c3.5-3.1,5.2-7.4,5.2-13C140.2,45.7,138.5,41.1,135.2,37.7z"/>
</svg>
