<svg xmlns="http://www.w3.org/2000/svg" viewBox="0 0 56.69 7.8"><defs><style>.cls-1{fill:#231f20;}</style></defs><title>3pontinhos</title><g id="Layer_2" data-name="Layer 2"><g id="Layer_1-2" data-name="Layer 1"><path class="cls-1" d="M56.36,2.45c.53,2.16.43,3.63-.32,4.38a4,4,0,0,1-3.3.94,5.3,5.3,0,0,1-3.43-1.62A4.51,4.51,0,0,1,47.68,2.9a2.91,2.91,0,0,1,.91-2A2.32,2.32,0,0,1,50.49,0Q52.2.1,53.91.28a3,3,0,0,1,2.45,2.17m-23.85,0c.54,2.16.44,3.63-.32,4.38a4,4,0,0,1-3.29.94,5.35,5.35,0,0,1-3.44-1.62A4.49,4.49,0,0,1,23.84,2.9a2.89,2.89,0,0,1,.9-2A2.33,2.33,0,0,1,26.64,0c1.15.06,2.29.15,3.43.27A2.94,2.94,0,0,1,32.51,2.45Zm-23.84,0c.54,2.16.43,3.63-.32,4.38a4,4,0,0,1-3.29.94A5.35,5.35,0,0,1,1.62,6.15,4.49,4.49,0,0,1,0,2.9a2.89,2.89,0,0,1,.9-2A2.32,2.32,0,0,1,2.8,0C3.94.07,5.08.16,6.23.28A3,3,0,0,1,8.67,2.45Z"/></g></g></svg>