<svg xmlns="http://www.w3.org/2000/svg" viewBox="0 0 33.4 33.4"><defs><style>.cls-1{fill:none;stroke:#f98e02;stroke-miterlimit:22.93;}.cls-2{fill:#f98e02;}</style></defs><title>btn-ok</title><g id="Layer_2" data-name="Layer 2"><g id="Layer_1-2" data-name="Layer 1"><path class="cls-1" d="M17.43.52A16.2,16.2,0,1,0,32.88,17.43,16.18,16.18,0,0,0,17.43.52Z"/><path class="cls-2" d="M24.8,9.17l1.72,1.73a1.69,1.69,0,0,1,.5,1.21,1.74,1.74,0,0,1-.5,1.22l-10.9,10.9a1.71,1.71,0,0,1-.56.37,1.72,1.72,0,0,1-1.31,0,1.71,1.71,0,0,1-.56-.37L6.88,17.92a1.71,1.71,0,0,1-.37-.56,1.71,1.71,0,0,1,.37-1.87L8.6,13.76a1.71,1.71,0,0,1,.56-.37,1.71,1.71,0,0,1,1.87.37l3.38,3.39,8-8a1.7,1.7,0,0,1,.55-.38,1.74,1.74,0,0,1,1.32,0,1.88,1.88,0,0,1,.56.37m1,2.43L24.09,9.88a.87.87,0,0,0-.23-.16.78.78,0,0,0-.28-.05.82.82,0,0,0-.28.05,1.06,1.06,0,0,0-.23.16l-8.66,8.68-4.08-4.09a.69.69,0,0,0-.23-.16.82.82,0,0,0-.28-.05.78.78,0,0,0-.28.05.69.69,0,0,0-.23.16L7.59,16.19a.57.57,0,0,0-.16.23.78.78,0,0,0,0,.28.61.61,0,0,0,0,.28.57.57,0,0,0,.16.23l6.31,6.31a.69.69,0,0,0,.23.16.78.78,0,0,0,.28.05.82.82,0,0,0,.28-.05.65.65,0,0,0,.22-.16l10.9-10.9a.57.57,0,0,0,.16-.23.78.78,0,0,0,.05-.28.82.82,0,0,0-.05-.28A.57.57,0,0,0,25.81,11.6Z"/></g></g></svg>