<svg xmlns="http://www.w3.org/2000/svg" xmlns:xlink="http://www.w3.org/1999/xlink" viewBox="0 0 33.43 33.43"><defs><style>.cls-1,.cls-4,.cls-6{fill:none;}.cls-2{clip-path:url(#clip-path);}.cls-3{fill:#fff;fill-rule:evenodd;}.cls-4,.cls-6{stroke:#f98e02;}.cls-4{stroke-miterlimit:22.93;}.cls-5{fill:#f98e02;}.cls-6{stroke-miterlimit:10;}</style><clipPath id="clip-path" transform="translate(0)"><rect class="cls-1" width="33.43" height="33.43"/></clipPath></defs><title>btn-configazul</title><g id="Camada_2" data-name="Camada 2"><g id="Camada_1-2" data-name="Camada 1"><g class="cls-2"><path class="cls-3" d="M17.42.52a16.22,16.22,0,1,0,15.5,16.9A16.21,16.21,0,0,0,17.42.52" transform="translate(0)"/><path class="cls-4" d="M17.42.52a16.22,16.22,0,1,0,15.5,16.9A16.21,16.21,0,0,0,17.42.52Z" transform="translate(0)"/><path class="cls-5" d="M20,22.22a11.11,11.11,0,0,1-1.6.7.66.66,0,0,0-.4.5v.8a.65.65,0,0,1-.6.6h-1.1a.65.65,0,0,1-.6-.6v-.8c0-.2-.2-.5-.4-.5a4.59,4.59,0,0,1-1.6-.7c-.2-.1-.5-.1-.6.1l-.6.6a.75.75,0,0,1-.9,0l-.8-.8a.75.75,0,0,1,0-.9l.6-.6a.47.47,0,0,0,.1-.6,11.11,11.11,0,0,1-.7-1.6.66.66,0,0,0-.5-.4h-.8a.65.65,0,0,1-.6-.6v-1.1a.65.65,0,0,1,.6-.6h.8c.2,0,.5-.2.5-.4a4.59,4.59,0,0,1,.7-1.6c.1-.2.1-.5-.1-.6l-.6-.6a.75.75,0,0,1,0-.9l.8-.8a.75.75,0,0,1,.9,0l.6.6a.47.47,0,0,0,.6.1,11.11,11.11,0,0,1,1.6-.7.66.66,0,0,0,.4-.5v-.8a.65.65,0,0,1,.6-.6h1.1a.65.65,0,0,1,.6.6v.8c0,.2.2.5.4.5a4.59,4.59,0,0,1,1.6.7c.2.1.5.1.6-.1l.6-.6a.75.75,0,0,1,.9,0l.8.8a.75.75,0,0,1,0,.9l-.6.6a.47.47,0,0,0-.1.6,11.11,11.11,0,0,1,.7,1.6.66.66,0,0,0,.5.4h.8a.65.65,0,0,1,.6.6v1.1a.65.65,0,0,1-.6.6h-.8c-.2,0-.5.2-.5.4a4.59,4.59,0,0,1-.7,1.6c-.1.2-.1.5.1.6l.6.6a.75.75,0,0,1,0,.9l-.8.8a.75.75,0,0,1-.9,0l-.6-.6a.38.38,0,0,0-.6-.1m-3.8,3.6h1.1a1.69,1.69,0,0,0,1.7-1.7v-.3a3.7,3.7,0,0,0,1.1-.5l.3.3a1.72,1.72,0,0,0,2.4,0l.8-.8a1.72,1.72,0,0,0,0-2.4l-.3-.3c.2-.4.3-.7.5-1.1h.4a1.69,1.69,0,0,0,1.7-1.7v-1.1a1.69,1.69,0,0,0-1.7-1.7h-.4a3.7,3.7,0,0,0-.5-1.1l.3-.3a1.72,1.72,0,0,0,0-2.4l-.8-.8a1.72,1.72,0,0,0-2.4,0l-.3.3c-.4-.2-.7-.3-1.1-.5v-.4a1.69,1.69,0,0,0-1.7-1.7h-1.1a1.69,1.69,0,0,0-1.7,1.7v.4a3.7,3.7,0,0,0-1.1.5l-.3-.3a1.72,1.72,0,0,0-2.4,0l-.8.8a1.72,1.72,0,0,0,0,2.4l.3.3c-.2.4-.3.7-.5,1.1h-.4a1.69,1.69,0,0,0-1.7,1.7v1.1A1.69,1.69,0,0,0,9.26,19h.4a3.7,3.7,0,0,0,.5,1.1l-.3.3a1.72,1.72,0,0,0,0,2.4l.8.8a1.72,1.72,0,0,0,2.4,0l.3-.3c.4.2.7.3,1.1.5v.4a1.67,1.67,0,0,0,1.7,1.6" transform="translate(0)"/><path class="cls-6" d="M20.5,16.72a3.79,3.79,0,1,1-3.79-3.79A3.79,3.79,0,0,1,20.5,16.72Z" transform="translate(0)"/></g></g></g></svg>