<svg xmlns="http://www.w3.org/2000/svg" viewBox="0 0 33.4 33.4"><defs><style>.cls-1{fill:none;stroke:#f98e02;stroke-miterlimit:22.93;}.cls-2{fill:#f98e02;}</style></defs><title>btn-voltar</title><g id="Layer_2" data-name="Layer 2"><g id="Layer_1-2" data-name="Layer 1"><path class="cls-1" d="M5.53,5a16.2,16.2,0,1,0,22.9.56A16.2,16.2,0,0,0,5.53,5Z"/><path class="cls-2" d="M19.52,11.15a.74.74,0,0,0-.22-.52l-.44-.44a.75.75,0,0,0-1,0l-6,6a.76.76,0,0,0,0,1.05l6,6a.76.76,0,0,0,1.05,0l.44-.44a.75.75,0,0,0,0-1l-5-5,5-5a.73.73,0,0,0,.22-.52"/></g></g></svg>