<svg xmlns="http://www.w3.org/2000/svg" viewBox="0 0 18.12 18.12"><defs><style>.cls-1{fill:#c47002;}</style></defs><title>icon01</title><g id="Layer_2" data-name="Layer 2"><g id="Layer_1-2" data-name="Layer 1"><path class="cls-1" d="M5.86,14.48a6.44,6.44,0,0,0,1.63.67.53.53,0,0,1,.39.52v.78a.62.62,0,0,0,.61.61H9.63a.61.61,0,0,0,.6-.61v-.78a.54.54,0,0,1,.4-.52,6.23,6.23,0,0,0,1.62-.67.53.53,0,0,1,.65.08l.55.55a.6.6,0,0,0,.86,0l.8-.8a.6.6,0,0,0,0-.86l-.55-.55a.53.53,0,0,1-.08-.65,6.23,6.23,0,0,0,.67-1.62.54.54,0,0,1,.52-.4h.78a.61.61,0,0,0,.61-.6V8.49a.61.61,0,0,0-.61-.61h-.78a.53.53,0,0,1-.52-.39,6.44,6.44,0,0,0-.67-1.63.51.51,0,0,1,.08-.64l.55-.56a.59.59,0,0,0,0-.85L14.31,3a.61.61,0,0,0-.86,0l-.55.56a.54.54,0,0,1-.65.08A5.9,5.9,0,0,0,10.63,3a.56.56,0,0,1-.4-.52V1.67a.6.6,0,0,0-.6-.61H8.49a.61.61,0,0,0-.61.61v.78A.55.55,0,0,1,7.49,3a6.09,6.09,0,0,0-1.63.67.53.53,0,0,1-.64-.08L4.66,3a.6.6,0,0,0-.85,0L3,3.81a.6.6,0,0,0,0,.85l.56.56a.53.53,0,0,1,.08.64A6.09,6.09,0,0,0,3,7.49a.54.54,0,0,1-.52.39H1.67a.61.61,0,0,0-.61.61V9.63a.6.6,0,0,0,.61.6h.78a.55.55,0,0,1,.52.4,5.9,5.9,0,0,0,.67,1.62.54.54,0,0,1-.08.65L3,13.45a.61.61,0,0,0,0,.86l.81.8a.59.59,0,0,0,.85,0l.56-.55a.52.52,0,0,1,.64-.08m3.77,3.64H8.49a1.67,1.67,0,0,1-1.67-1.67v-.39a6.57,6.57,0,0,1-1.13-.47l-.28.27a1.64,1.64,0,0,1-2.35,0l-.81-.8a1.67,1.67,0,0,1,0-2.36l.27-.27a8.26,8.26,0,0,1-.47-1.14H1.67A1.66,1.66,0,0,1,0,9.63V8.49A1.67,1.67,0,0,1,1.67,6.82h.38a8.67,8.67,0,0,1,.47-1.13l-.27-.28a1.67,1.67,0,0,1,0-2.36l.81-.8a1.66,1.66,0,0,1,2.35,0l.28.27a7.47,7.47,0,0,1,1.13-.47V1.67A1.67,1.67,0,0,1,8.49,0H9.63a1.66,1.66,0,0,1,1.66,1.67v.38a7.59,7.59,0,0,1,1.14.47l.27-.27a1.67,1.67,0,0,1,2.36,0l.8.81a1.64,1.64,0,0,1,0,2.35l-.27.28a6.57,6.57,0,0,1,.47,1.13h.39a1.67,1.67,0,0,1,1.67,1.67V9.63a1.66,1.66,0,0,1-1.67,1.66h-.39a6.35,6.35,0,0,1-.47,1.14l.27.27a1.65,1.65,0,0,1,0,2.36l-.8.8a1.66,1.66,0,0,1-2.36,0l-.27-.27a6.67,6.67,0,0,1-1.14.47v.39A1.66,1.66,0,0,1,9.63,18.12Z"/><path class="cls-1" d="M9.06,6.18a2.88,2.88,0,1,0,2.88,2.88A2.88,2.88,0,0,0,9.06,6.18m0,6.82A3.94,3.94,0,1,1,13,9.06,3.94,3.94,0,0,1,9.06,13Z"/></g></g></svg>