<svg xmlns="http://www.w3.org/2000/svg" viewBox="0 0 52.73 52.47"><defs><style>.cls-1{fill:#fff;}</style></defs><title>iconEditar</title><g id="Layer_2" data-name="Layer 2"><g id="Layer_1-2" data-name="Layer 1"><path class="cls-1" d="M48.67,32.93a1.32,1.32,0,0,0-1.32,1.31V45.9a3.94,3.94,0,0,1-3.94,3.94H6.56A4,4,0,0,1,2.62,45.9V11.68A3.94,3.94,0,0,1,6.56,7.74H18.23a1.32,1.32,0,0,0,0-2.63H6.56A6.57,6.57,0,0,0,0,11.68V45.9a6.57,6.57,0,0,0,6.56,6.57H43.41A6.57,6.57,0,0,0,50,45.9V34.24a1.31,1.31,0,0,0-1.31-1.31"/><path class="cls-1" d="M49.14,9.78l-1.39,1.39L41.57,5,43,3.59a3.28,3.28,0,0,1,4.64,0l1.54,1.54a3.28,3.28,0,0,1,0,4.65M19.3,28.5l4.94,4.94-6.83,1.89ZM20.53,26,39.71,6.84,45.89,13,26.72,32.2ZM49.46,1.73a5.91,5.91,0,0,0-8.36,0L17.67,25.16a1.29,1.29,0,0,0-.33.58L14.25,36.86a1.31,1.31,0,0,0,.34,1.28,1.29,1.29,0,0,0,1.28.34L27,35.4a1.31,1.31,0,0,0,.58-.34L51,11.63a5.91,5.91,0,0,0,0-8.36Z"/></g></g></svg>