<svg xmlns="http://www.w3.org/2000/svg" viewBox="0 0 12.98 16.22"><defs><style>.cls-1{fill:#c47002;}</style></defs><title>icon05</title><g id="Layer_2" data-name="Layer 2"><g id="Layer_1-2" data-name="Layer 1"><path class="cls-1" d="M10.55,15.33H2.43A1.42,1.42,0,0,1,.9,14.08l.88-10h1.5V5.41a.45.45,0,0,0,.9,0V4.05H8.8V5.41a.45.45,0,1,0,.9,0V4.05h1.5l.89,10a1.44,1.44,0,0,1-1.54,1.25M6.49.9A2.31,2.31,0,0,1,8.8,3.15H4.18A2.31,2.31,0,0,1,6.49.9ZM13,14,12.05,3.56a.45.45,0,0,0-.44-.41H9.7a3.21,3.21,0,0,0-6.41,0H1.38a.45.45,0,0,0-.45.41L0,14v0a2.31,2.31,0,0,0,2.43,2.16h8.12A2.31,2.31,0,0,0,13,14.06Z"/></g></g></svg>