<svg xmlns="http://www.w3.org/2000/svg" viewBox="0 0 19.8 17.65"><defs><style>.cls-1{fill:#c47002;}</style></defs><title>icon02</title><g id="Layer_2" data-name="Layer 2"><g id="Layer_1-2" data-name="Layer 1"><path class="cls-1" d="M19.59,7,10.21.1A.53.53,0,0,0,9.6.1L.21,7a.52.52,0,0,0,.61.83L9.9,1.15,19,7.8a.47.47,0,0,0,.3.1.51.51,0,0,0,.3-.93"/><path class="cls-1" d="M17.11,7.92a.51.51,0,0,0-.52.51v8.19H12.48V12.15a2.58,2.58,0,0,0-5.15,0v4.47H3.21V8.43a.52.52,0,0,0-1,0v8.71a.51.51,0,0,0,.52.51H7.84a.51.51,0,0,0,.52-.47v-5a1.55,1.55,0,0,1,3.09,0v5a.51.51,0,0,0,.51.47h5.15a.51.51,0,0,0,.51-.51V8.43a.51.51,0,0,0-.51-.51"/></g></g></svg>