<svg xmlns="http://www.w3.org/2000/svg" viewBox="0 0 48.5 48.5"><defs><style>.cls-1{fill:none;stroke:#f98e02;stroke-miterlimit:22.93;stroke-width:1.5px;}.cls-2{fill:#f98e02;}</style></defs><title>icon_phone</title><g id="Layer_2" data-name="Layer 2"><g id="Layer_1-2" data-name="Layer 1"><circle class="cls-1" cx="24.25" cy="24.25" r="23.5"/><path class="cls-2" d="M34.89,32.65h0c-.22.24-.44.46-.69.7a14.67,14.67,0,0,0-1.09,1.13,2.75,2.75,0,0,1-2.13.9h-.27a12.42,12.42,0,0,1-4.42-1.33,25.2,25.2,0,0,1-8.37-6.56,23.08,23.08,0,0,1-4.08-6.8,8.14,8.14,0,0,1-.64-3.55A2.63,2.63,0,0,1,14,15.46l1.93-1.93a1.3,1.3,0,0,1,.86-.41,1.22,1.22,0,0,1,.83.4l0,0c.34.32.67.66,1,1,.17.19.36.37.54.55l1.54,1.55a1.08,1.08,0,0,1,0,1.76l-.48.49c-.48.48-.93.94-1.43,1.38l0,0a1.16,1.16,0,0,0-.3,1.29l0,0a12.61,12.61,0,0,0,1.83,3h0a20.85,20.85,0,0,0,5,4.58,6,6,0,0,0,.7.38l.56.3.07,0a1.16,1.16,0,0,0,.56.14,1.2,1.2,0,0,0,.86-.39l1.94-1.94a1.29,1.29,0,0,1,.86-.42,1.14,1.14,0,0,1,.81.41l3.14,3.14a1.12,1.12,0,0,1,0,1.77m-2-6A2.65,2.65,0,0,0,31,25.8a2.7,2.7,0,0,0-1.94.88l-1.79,1.78-.44-.22c-.2-.11-.4-.2-.56-.3a19.47,19.47,0,0,1-4.67-4.26A11.57,11.57,0,0,1,20,21.27c.46-.43.9-.87,1.32-1.3l.47-.48a2.6,2.6,0,0,0,0-3.92L20.26,14l-.52-.54c-.34-.35-.7-.71-1.07-1.05a2.67,2.67,0,0,0-1.9-.84,2.77,2.77,0,0,0-1.93.84h0L12.9,14.38A4.18,4.18,0,0,0,11.67,17a9.94,9.94,0,0,0,.73,4.21,24.33,24.33,0,0,0,4.34,7.23,26.61,26.61,0,0,0,8.88,7,13.78,13.78,0,0,0,5,1.47l.36,0a4.25,4.25,0,0,0,3.27-1.41l0,0a12,12,0,0,1,1-1c.24-.24.49-.48.73-.74a2.82,2.82,0,0,0,.86-2A2.71,2.71,0,0,0,36,29.81Z"/></g></g></svg>