<svg xmlns="http://www.w3.org/2000/svg" viewBox="0 0 48.5 48.5"><defs><style>.cls-1{fill:none;stroke:#f98e02;stroke-miterlimit:22.93;stroke-width:1.5px;}.cls-2{fill:#f98e02;}</style></defs><title>icon_home</title><g id="Layer_2" data-name="Layer 2"><g id="Layer_1-2" data-name="Layer 1"><circle class="cls-1" cx="24.25" cy="24.25" r="23.5"/><path class="cls-2" d="M38.16,20.3,24.69,10.43a.75.75,0,0,0-.88,0L10.34,20.3a.74.74,0,0,0,.87,1.19l13-9.55,13,9.55a.7.7,0,0,0,.44.14.72.72,0,0,0,.59-.3.74.74,0,0,0-.16-1"/><path class="cls-2" d="M34.59,21.66a.74.74,0,0,0-.74.74V34.15H27.94V27.73a3.69,3.69,0,1,0-7.38,0v6.42H14.65V22.4a.74.74,0,0,0-1.48,0V34.89a.74.74,0,0,0,.74.74h7.38A.74.74,0,0,0,22,35V27.73a2.22,2.22,0,0,1,4.44,0V35a.74.74,0,0,0,.73.68h7.39a.74.74,0,0,0,.74-.74V22.4a.74.74,0,0,0-.74-.74"/></g></g></svg>