<svg xmlns="http://www.w3.org/2000/svg" viewBox="0 0 48.5 48.5"><defs><style>.cls-1{fill:none;stroke:#f98e02;stroke-miterlimit:22.93;stroke-width:1.5px;}.cls-2{fill:#f98e02;}</style></defs><title>icon_chat</title><g id="Layer_2" data-name="Layer 2"><g id="Layer_1-2" data-name="Layer 1"><circle class="cls-1" cx="24.25" cy="24.25" r="23.5"/><path class="cls-2" d="M32.45,28.4l-4.12,6.11-1.79-3a.88.88,0,0,0-.76-.43h-.09a13.75,13.75,0,0,1-1.44.07c-6.24,0-11.32-4-11.32-9s5.08-9,11.32-9,11.32,4,11.32,9a8.07,8.07,0,0,1-3.12,6.18m1-13.85a14.58,14.58,0,0,0-9.18-3.08,14.58,14.58,0,0,0-9.18,3.08,9.84,9.84,0,0,0-3.91,7.67,9.82,9.82,0,0,0,3.91,7.66A14.59,14.59,0,0,0,24.25,33c.35,0,.71,0,1.06,0l2.23,3.68a.86.86,0,0,0,.74.42h0a.86.86,0,0,0,.73-.39l4.72-7a9.8,9.8,0,0,0,3.59-7.4A9.84,9.84,0,0,0,33.43,14.55Z"/></g></g></svg>