<svg xmlns="http://www.w3.org/2000/svg" viewBox="0 0 15.85 15.49"><defs><style>.cls-1{fill:#c47002;}</style></defs><title>icon04</title><g id="Layer_2" data-name="Layer 2"><g id="Layer_1-2" data-name="Layer 1"><path class="cls-1" d="M12.89,10.26,10.4,14,9.31,12.17a.5.5,0,0,0-.45-.26H8.8a8.46,8.46,0,0,1-.87.05C4.15,12,1.07,9.51,1.07,6.51S4.15,1.07,7.93,1.07s6.85,2.44,6.85,5.44a4.89,4.89,0,0,1-1.89,3.75m.6-8.39A8.82,8.82,0,0,0,7.93,0,8.83,8.83,0,0,0,2.36,1.87,6,6,0,0,0,0,6.51a6,6,0,0,0,2.36,4.65A8.89,8.89,0,0,0,7.93,13l.64,0,1.35,2.23a.51.51,0,0,0,.45.26h0a.52.52,0,0,0,.44-.24L13.68,11a5.94,5.94,0,0,0,2.17-4.49A6,6,0,0,0,13.49,1.87Z"/></g></g></svg>