<svg xmlns="http://www.w3.org/2000/svg" viewBox="0 0 15.9 18.69"><defs><style>.cls-1{fill:#c47002;}</style></defs><title>icon03</title><g id="Layer_2" data-name="Layer 2"><g id="Layer_1-2" data-name="Layer 1"><path class="cls-1" d="M5,4.15s0,0,0,0c.13-2.77,2.1-3.07,2.94-3.07H8c1,0,2.82.45,2.94,3.07v0s.28,2.66-1,4A2.48,2.48,0,0,1,8,9h0a2.51,2.51,0,0,1-2-.82c-1.22-1.38-1-4-1-4m2.91,5.92H8a3.56,3.56,0,0,0,2.73-1.18C12.22,7.21,12,4.33,12,4.06A3.93,3.93,0,0,0,10.07.55,4.29,4.29,0,0,0,8,0H7.92A4.31,4.31,0,0,0,5.84.53a4,4,0,0,0-1.9,3.53c0,.27-.27,3.15,1.22,4.83A3.56,3.56,0,0,0,7.88,10.07Z"/><path class="cls-1" d="M15.9,14.84h0s0-.06,0-.09c0-.77-.07-2.56-1.75-3.13l0,0a10.91,10.91,0,0,1-3.21-1.46.52.52,0,1,0-.6.86,12.25,12.25,0,0,0,3.53,1.61c.9.32,1,1.28,1,2.17v.09a5.86,5.86,0,0,1-.08,1.2A14.13,14.13,0,0,1,8,17.65a14.43,14.43,0,0,1-6.83-1.59A6.66,6.66,0,0,1,1,14.86s0-.06,0-.1c0-.88.12-1.84,1-2.16A12.45,12.45,0,0,0,5.61,11a.52.52,0,1,0-.6-.85A11.37,11.37,0,0,1,1.8,11.59h0C.08,12.18,0,14,0,14.73a.31.31,0,0,1,0,.1H0a5.91,5.91,0,0,0,.2,1.75.55.55,0,0,0,.2.25A14.74,14.74,0,0,0,8,18.69a14.75,14.75,0,0,0,7.56-1.85.55.55,0,0,0,.2-.25,6.51,6.51,0,0,0,.19-1.75"/></g></g></svg>