<svg xmlns="http://www.w3.org/2000/svg" viewBox="0 0 85.04 85.73"><defs><style>.cls-1{fill:#38a6e2;}.cls-1,.cls-2,.cls-3{fill-rule:evenodd;}.cls-2{fill:#fac707;}.cls-3{fill:#ef3120;}</style></defs><title>logo_elo</title><g id="Layer_2" data-name="Layer 2"><g id="Layer_1-2" data-name="Layer 1"><path class="cls-1" d="M0,41.85a43.51,43.51,0,0,0,1.38,11.9c.11.44.19.7.32,1.1s.2.76.32,1.11a59.11,59.11,0,0,0,2.51,6.12,36.55,36.55,0,0,0,2.33,4,33.46,33.46,0,0,0,3.4,4.55c.15.16.15.22.3.38s.22.2.36.38l1.36,1.49A20.14,20.14,0,0,0,14.55,75a6.06,6.06,0,0,1,1-1.22l.75-.84a5.2,5.2,0,0,1,.38-.44,3.31,3.31,0,0,0,.35-.41L20,68.81c.15-.18.26-.24.41-.44L25.09,63a4.15,4.15,0,0,1,.4-.43,3.47,3.47,0,0,0,.69-.88c-.35-.52-1.87-1.92-2.49-2.61l-1.8-2.4-.34-.56a8.83,8.83,0,0,1-.65-1.08c-.47-.94-1-1.86-1.35-2.84-.09-.25-.18-.43-.27-.64l-.44-1.28a24.89,24.89,0,0,1-.71-12.09,35.57,35.57,0,0,1,1.1-4.08l.5-1.23c.08-.2.15-.36.25-.57l.85-1.7a22.26,22.26,0,0,1,1.31-2.14c.13-.18.23-.3.36-.47A15.52,15.52,0,0,1,24,26.12a18.6,18.6,0,0,1,1.69-1.75,1.41,1.41,0,0,0,.46-.45,10.78,10.78,0,0,0-1.4-1.67L23.69,21c-.76-.79-1.4-1.71-2.18-2.48l-1.84-2.06a3.2,3.2,0,0,1-.33-.42c-.81-1-2.72-2.92-3.36-3.77a2.6,2.6,0,0,0-.36-.39,10.7,10.7,0,0,0-1.14-1.26A36.79,36.79,0,0,0,10.23,15L9,16.52a40.52,40.52,0,0,0-4.42,7c-.09.19-.11.28-.21.48l-.69,1.47A44.36,44.36,0,0,0,.87,34.09,34.5,34.5,0,0,0,0,41.72Z"/><path class="cls-2" d="M29.33,2c0,.4,1.74,5.36,2.06,6.26l3.5,10.54a40.38,40.38,0,0,1,5.63-1.13c.49,0,1,0,1.56-.07a24.29,24.29,0,0,1,6.17.51l2.66.72a25.93,25.93,0,0,1,6.75,3.45c.36.26.61.49,1,.75a22.49,22.49,0,0,1,3,2.83c.16.18.27.27.43.47l1.5,1.94a25.37,25.37,0,0,1,3.78,8.09c0,.24.09.47.15.67a4.14,4.14,0,0,1,.16.75c.33,0,.79-.18,1.18-.26l15.9-3.22c.39-.12.34-.08.11-1a44.85,44.85,0,0,0-1.69-5.66,42,42,0,0,0-3.37-7,46.86,46.86,0,0,0-4.35-6l-1-1.16a46.91,46.91,0,0,0-7.09-6.11L66,6.55c-.65-.39-1.21-.76-1.87-1.13a44.13,44.13,0,0,0-6-2.8L54.83,1.51,51.21.64A39.32,39.32,0,0,0,45.93,0H40a38.39,38.39,0,0,0-9.38,1.65c-.38.13-.89.28-1.28.38"/><path class="cls-3" d="M43,68a27.42,27.42,0,0,1-8.1-1.28L31.77,76.1c-.53,1.37-1.21,3.79-1.75,5.21l-.68,2.17c0,.17,1.17.45,1.36.51a40.63,40.63,0,0,0,4.54,1.08,50.45,50.45,0,0,0,6.62.66h2.33a45.68,45.68,0,0,0,10.14-1.48A49.84,49.84,0,0,0,62,81.36a44.71,44.71,0,0,0,9.89-6.76c.3-.24.48-.5.77-.74l.81-.76a.05.05,0,0,1,0,0l.11-.11,3.35-3.85c.15-.19.18-.24.32-.44l1.56-2.18c.9-1.38,1.48-2.4,2.26-3.82l.51-1c.46-1.07,1-2,1.37-3.13.28-.76.54-1.45.79-2.21a38.92,38.92,0,0,0,1.16-4.17c.24-1.06.54-.64-2.13-1.25L67.67,47.86l-.56,2.21c-.12.37-.19.68-.32,1s-.27.7-.39,1a25.81,25.81,0,0,1-3.28,5.79,2.78,2.78,0,0,1-.31.43l-2.7,2.94a25.62,25.62,0,0,1-7.71,4.9A24.7,24.7,0,0,1,43,68"/></g></g></svg>