<svg xmlns="http://www.w3.org/2000/svg" viewBox="0 0 24.33 23.9"><defs><style>.cls-1{fill:#fff;}</style></defs><title>pedido</title><g id="Layer_2" data-name="Layer 2"><g id="Layer_1-2" data-name="Layer 1"><path class="cls-1" d="M5.63,9.27l.13,0a.5.5,0,0,0,.48-.37,5.36,5.36,0,0,1,3.92-4,.5.5,0,1,0-.18-1,6.36,6.36,0,0,0-4.7,4.72.49.49,0,0,0,.35.61"/><path class="cls-1" d="M23.34,12.12H1v-1H23.34Zm-9.46,1.44a7.7,7.7,0,0,1-2.83.09c-.25-.18-.47-.37-.68-.54h3.81ZM12.16,1a1.08,1.08,0,0,1,1,.64,8.21,8.21,0,0,0-1,0,8,8,0,0,0-1,0A1.08,1.08,0,0,1,12.16,1Zm0,1.58a8.22,8.22,0,0,1,8.23,7.53H3.94A8.21,8.21,0,0,1,12.16,2.57Zm11.2,7.55h-2A9.15,9.15,0,0,0,18.62,4.2a9.26,9.26,0,0,0-4.4-2.4,2.07,2.07,0,0,0-4.11,0,9.27,9.27,0,0,0-7.17,8.32H1a1,1,0,0,0-1,1v1.05a1,1,0,0,0,1,1H6.51c.3.42,1.52,2.24,1.94,2.75.67.83,2.54,1.23,3.45,1.38l-.69,6.11a.5.5,0,0,0,.44.55h.06a.49.49,0,0,0,.49-.44L13,16.88a.5.5,0,0,0-.44-.55c-1.11-.14-2.86-.57-3.29-1.1s-1.35-1.91-1.49-2.12H8.84c.27.25.9.8,1.63,1.35.52.39,2.71.34,3.85,0a.51.51,0,0,0,.28-.2l.78-1.16h1L15.21,17a.38.38,0,0,0,0,.15l.12,6.22a.48.48,0,0,0,.49.49h0a.49.49,0,0,0,.49-.5l-.12-6.16,1.19-4.13h6a1,1,0,0,0,1-1V11.09A1,1,0,0,0,23.36,10.12Z"/></g></g></svg>