<svg xmlns="http://www.w3.org/2000/svg" viewBox="0 0 28.35 16.65"><defs><style>.cls-1{fill:#c47002;}</style></defs><title>seta-down</title><g id="Layer_2" data-name="Layer 2"><g id="Layer_1-2" data-name="Layer 1"><path class="cls-1" d="M2.48,0a1.56,1.56,0,0,0-1.1.45l-.93.93A1.56,1.56,0,0,0,0,2.48a1.58,1.58,0,0,0,.45,1.1L13.08,16.2a1.57,1.57,0,0,0,2.2,0L27.89,3.59a1.57,1.57,0,0,0,.46-1.1,1.55,1.55,0,0,0-.46-1.09L27,.47a1.55,1.55,0,0,0-2.2,0L14.18,11.06,3.58.45A1.56,1.56,0,0,0,2.48,0"/></g></g></svg>