<?xml version="1.0" encoding="utf-8"?>
<!-- Generator: Adobe Illustrator 23.0.0, SVG Export Plug-In . SVG Version: 6.00 Build 0)  -->
<svg version="1.1" id="Camada_1" xmlns="http://www.w3.org/2000/svg" xmlns:xlink="http://www.w3.org/1999/xlink" x="0px" y="0px"
	 viewBox="0 0 28.4 28.4" style="enable-background:new 0 0 28.4 28.4;" xml:space="preserve">
<style type="text/css">
	.st0{fill:#C47002;}
</style>
<title>seta-down</title>
<g id="Layer_2">
	<g id="Layer_1-2">
		<path class="st0" d="M22.5,2.5c0-0.4-0.2-0.8-0.5-1.1l-0.9-0.9C20.8,0.2,20.4,0,20,0c-0.4,0-0.8,0.2-1.1,0.4L6.3,13.1
			c-0.6,0.6-0.6,1.6,0,2.2l12.6,12.6c0.3,0.3,0.7,0.5,1.1,0.5c0.4,0,0.8-0.2,1.1-0.5L22,27c0.6-0.6,0.6-1.6,0-2.2c0,0,0,0,0,0
			L11.4,14.2L22,3.6C22.3,3.3,22.5,2.9,22.5,2.5"/>
	</g>
</g>
</svg>
