<svg xmlns="http://www.w3.org/2000/svg" viewBox="0 0 22.22 22.22"><defs><style>.cls-1{fill:#fff;}</style></defs><title>sobre</title><g id="Layer_2" data-name="Layer 2"><g id="Layer_1-2" data-name="Layer 1"><path class="cls-1" d="M11.11,20.2a9.09,9.09,0,1,1,9.09-9.09,9.1,9.1,0,0,1-9.09,9.09m0-20.2A11.11,11.11,0,1,0,22.22,11.11,11.12,11.12,0,0,0,11.11,0Z"/><path class="cls-1" d="M11.11,4.71a1.35,1.35,0,1,0,1.35,1.35,1.36,1.36,0,0,0-1.35-1.35"/><path class="cls-1" d="M11.11,9.43a1,1,0,0,0-1,1V16.5a1,1,0,0,0,2,0V10.44a1,1,0,0,0-1-1"/></g></g></svg>